<svg viewBox="0 0 64 64" xmlns="http://www.w3.org/2000/svg"><path d="M44.5 9A10.51 10.51 0 0 1 55 19.5v25A10.51 10.51 0 0 1 44.5 55h-25A10.51 10.51 0 0 1 9 44.5v-25A10.51 10.51 0 0 1 19.5 9h25m0-2h-25A12.5 12.5 0 0 0 7 19.5v25A12.5 12.5 0 0 0 19.5 57h25A12.5 12.5 0 0 0 57 44.5v-25A12.5 12.5 0 0 0 44.5 7Z" fill="#ffffff" class="fill-000000"></path><path d="M32 22a10 10 0 1 1-10 10 10 10 0 0 1 10-10m0-2a12 12 0 1 0 12 12 12 12 0 0 0-12-12ZM46 15a2 2 0 1 1-2 2 2 2 0 0 1 2-2m0-2a4 4 0 1 0 4 4 4 4 0 0 0-4-4Z" fill="#ffffff" class="fill-000000"></path></svg>